{
    "asset" : {
        "generator" : "Khronos glTF Blender I/O v0.9.36",
        "version" : "2.0"
    },
    "scene" : 0,
    "scenes" : [
        {
            "name" : "Scene",
            "nodes" : [
                0
            ]
        }
    ],
    "nodes" : [
        {
            "mesh" : 0,
            "name" : "Cube",
            "scale" : [
                0.5034666061401367,
                1,
                2.079608917236328
            ],
            "translation" : [
                0,
                1.0120891332626343,
                0
            ]
        }
    ],
    "materials" : [
        {
            "doubleSided" : true,
            "name" : "Material.001",
            "pbrMetallicRoughness" : {
                "baseColorFactor" : [
                    0.02909943088889122,
                    0.027515748515725136,
                    0.028209587559103966,
                    1
                ],
                "metallicFactor" : 0,
                "roughnessFactor" : 0.5
            }
        }
    ],
    "meshes" : [
        {
            "name" : "Cube.003",
            "primitives" : [
                {
                    "attributes" : {
                        "POSITION" : 0,
                        "NORMAL" : 1,
                        "TEXCOORD_0" : 2
                    },
                    "indices" : 3,
                    "material" : 0
                }
            ]
        }
    ],
    "accessors" : [
        {
            "bufferView" : 0,
            "componentType" : 5126,
            "count" : 1323,
            "max" : [
                2.5528833866119385,
                1.220489501953125,
                0.8326508402824402
            ],
            "min" : [
                -1.0756596326828003,
                -1,
                -1
            ],
            "type" : "VEC3"
        },
        {
            "bufferView" : 1,
            "componentType" : 5126,
            "count" : 1323,
            "type" : "VEC3"
        },
        {
            "bufferView" : 2,
            "componentType" : 5126,
            "count" : 1323,
            "type" : "VEC2"
        },
        {
            "bufferView" : 3,
            "componentType" : 5123,
            "count" : 3642,
            "type" : "SCALAR"
        }
    ],
    "bufferViews" : [
        {
            "buffer" : 0,
            "byteLength" : 15876,
            "byteOffset" : 0
        },
        {
            "buffer" : 0,
            "byteLength" : 15876,
            "byteOffset" : 15876
        },
        {
            "buffer" : 0,
            "byteLength" : 10584,
            "byteOffset" : 31752
        },
        {
            "buffer" : 0,
            "byteLength" : 7284,
            "byteOffset" : 42336
        }
    ],
    "buffers" : [
        {
            "byteLength" : 49620,
            "uri" : "data:application/octet-stream;base64,"
        }
    ]
}
